<svg width="38" height="28" viewBox="0 0 38 28" fill="none" xmlns="http://www.w3.org/2000/svg">
<path d="M37.1249 14C37.1249 14.4973 36.9274 14.9742 36.5758 15.3259C36.2241 15.6775 35.7472 15.875 35.2499 15.875H9.04432L7.16932 14L9.04432 12.125H35.2499C35.7472 12.125 36.2241 12.3226 36.5758 12.6742C36.9274 13.0259 37.1249 13.5028 37.1249 14ZM15.3258 26.5759C15.4999 26.4018 15.638 26.1951 15.7323 25.9676C15.8265 25.7401 15.875 25.4963 15.875 25.25C15.875 25.0038 15.8265 24.76 15.7323 24.5325C15.638 24.305 15.4999 24.0983 15.3258 23.9242L5.40159 14L15.3258 4.07591C15.6774 3.72427 15.875 3.24734 15.875 2.75005C15.875 2.25275 15.6774 1.77583 15.3258 1.42419C14.9742 1.07255 14.4972 0.875 13.9999 0.875C13.5027 0.875 13.0257 1.07255 12.6741 1.42419L1.42409 12.6742C1.24997 12.8483 1.11185 13.055 1.01761 13.2825C0.923379 13.51 0.874878 13.7538 0.874878 14C0.874878 14.2463 0.923379 14.4901 1.01761 14.7176C1.11185 14.9451 1.24997 15.1518 1.42409 15.3259L12.6741 26.5759C12.8482 26.75 13.0549 26.8881 13.2824 26.9824C13.5099 27.0766 13.7537 27.1251 13.9999 27.1251C14.2462 27.1251 14.49 27.0766 14.7175 26.9824C14.945 26.8881 15.1517 26.75 15.3258 26.5759Z" fill="black"/>
</svg>
