<svg width="60" height="60" viewBox="0 0 60 60" fill="none" xmlns="http://www.w3.org/2000/svg">
<path fill-rule="evenodd" clip-rule="evenodd" d="M34.4724 27.742C34.4724 25.2821 32.4598 23.2695 30 23.2695C27.5402 23.2695 25.5276 25.2821 25.5276 27.742V29.9782C25.5276 31.1215 25.9624 32.1681 26.6748 32.9611C27.4951 33.8742 28.6835 34.4506 30.0001 34.4506C31.3167 34.4506 32.5051 33.874 33.3253 32.9611C34.0377 32.1683 34.4725 31.1215 34.4725 29.9782V27.742H34.4724Z" fill="#BB6B57"/>
<path fill-rule="evenodd" clip-rule="evenodd" d="M33.3252 32.9612C32.5049 33.8743 31.3165 34.4507 30 34.4507C28.6834 34.4507 27.495 33.8741 26.6749 32.9609C24.0208 34.2169 22.1732 36.9236 22.1732 40.0411V53.9274H37.8268V40.0411C37.8268 36.9238 35.9792 34.217 33.3252 32.9612Z" fill="#FF5A58"/>
<path fill-rule="evenodd" clip-rule="evenodd" d="M20.6311 27.742C20.6311 25.2821 18.6185 23.2695 16.1587 23.2695C13.6989 23.2695 11.6863 25.2821 11.6863 27.742V29.9782C11.6863 31.1215 12.1211 32.1681 12.8335 32.9611C13.6538 33.8742 14.8422 34.4506 16.1588 34.4506C17.4754 34.4506 18.6638 33.874 19.484 32.9611C20.1964 32.1683 20.6312 31.1215 20.6312 29.9782V27.742H20.6311Z" fill="#CC9081"/>
<path fill-rule="evenodd" clip-rule="evenodd" d="M19.4839 32.9612C18.6636 33.8743 17.4752 34.4507 16.1587 34.4507C14.8422 34.4507 13.6537 33.8741 12.8336 32.9609C10.1795 34.2169 8.33194 36.9236 8.33194 40.0411V53.9274H23.9855V40.0411C23.9855 36.9238 22.1379 34.217 19.4839 32.9612Z" fill="#66E0F7"/>
<path fill-rule="evenodd" clip-rule="evenodd" d="M48.3137 27.742C48.3137 25.2821 46.3011 23.2695 43.8413 23.2695C41.3814 23.2695 39.3689 25.2821 39.3689 27.742V29.9782C39.3689 31.1215 39.8037 32.1681 40.5161 32.9611C41.3364 33.8742 42.5248 34.4506 43.8413 34.4506C45.1579 34.4506 46.3463 33.874 47.1666 32.9611C47.879 32.1683 48.3138 31.1215 48.3138 29.9782V27.742H48.3137Z" fill="#CC9081"/>
<path fill-rule="evenodd" clip-rule="evenodd" d="M47.1665 32.9612C46.3462 33.8743 45.1578 34.4507 43.8412 34.4507C42.5246 34.4507 41.3362 33.8741 40.5161 32.9609C37.862 34.2169 36.0144 36.9236 36.0144 40.0411V53.9274H51.6679V40.0411C51.6681 36.9238 49.8205 34.217 47.1665 32.9612Z" fill="#FF9346"/>
<path fill-rule="evenodd" clip-rule="evenodd" d="M28.6407 2.67422C26.622 0.661979 23.3186 0.661979 21.3 2.67422C15.8155 8.14115 26.374 17.6955 30.0001 18.6641C33.6262 17.6955 44.1847 8.14115 38.7002 2.67422C36.6816 0.661979 33.3782 0.661979 31.3596 2.67422C30.5504 3.48074 29.3657 3.39695 28.6407 2.67422Z" fill="#FF5A58"/>
<path fill-rule="evenodd" clip-rule="evenodd" d="M13.7106 43.7248C13.7106 41.2649 11.698 39.2524 9.23818 39.2524C6.7784 39.2524 4.76581 41.265 4.76581 43.7248V45.961C4.76581 47.1043 5.20056 48.1509 5.91295 48.9439C6.73331 49.857 7.92171 50.4334 9.23818 50.4334C10.5548 50.4334 11.7432 49.8568 12.5635 48.9439C13.2759 48.151 13.7107 47.1043 13.7107 45.961V43.7248H13.7106Z" fill="#BB6B57"/>
<path fill-rule="evenodd" clip-rule="evenodd" d="M12.5634 48.9446C11.743 49.8577 10.5546 50.4341 9.23806 50.4341C7.92147 50.4341 6.73307 49.8575 5.91295 48.9443C3.25887 50.2003 1.4113 52.907 1.4113 56.0245V58.8378H17.0648V56.0245C17.0649 52.9071 15.2174 50.2004 12.5634 48.9446Z" fill="#FFC144"/>
<path fill-rule="evenodd" clip-rule="evenodd" d="M27.5517 43.7248C27.5517 41.2649 25.5391 39.2524 23.0794 39.2524C20.6195 39.2524 18.607 41.265 18.607 43.7248V45.961C18.607 47.1043 19.0418 48.1509 19.7541 48.9439C20.5745 49.857 21.7629 50.4334 23.0794 50.4334C24.3959 50.4334 25.5843 49.8568 26.4046 48.9439C27.117 48.151 27.5517 47.1043 27.5517 45.961V43.7248Z" fill="#E5AE8C"/>
<path fill-rule="evenodd" clip-rule="evenodd" d="M26.4047 48.9446C25.5843 49.8577 24.3959 50.4341 23.0795 50.4341C21.7629 50.4341 20.5745 49.8575 19.7544 48.9443C17.1003 50.2003 15.2527 52.907 15.2527 56.0245V58.8378H30.9062V56.0245C30.9062 52.9071 29.0585 50.2004 26.4047 48.9446Z" fill="#8481E2"/>
<path fill-rule="evenodd" clip-rule="evenodd" d="M41.393 43.7248C41.393 41.2649 39.3804 39.2524 36.9207 39.2524C34.4608 39.2524 32.4483 41.265 32.4483 43.7248V45.961C32.4483 47.1043 32.883 48.1509 33.5954 48.9439C34.4158 49.857 35.6042 50.4334 36.9208 50.4334C38.2374 50.4334 39.4258 49.8568 40.246 48.9439C40.9584 48.151 41.3931 47.1043 41.3931 45.961V43.7248H41.393Z" fill="#CC9081"/>
<path fill-rule="evenodd" clip-rule="evenodd" d="M40.2459 48.9446C39.4255 49.8577 38.2371 50.4341 36.9207 50.4341C35.6041 50.4341 34.4157 49.8575 33.5955 48.9443C30.9415 50.2003 29.0939 52.907 29.0939 56.0245V58.8378H44.7474V56.0245C44.7474 52.9071 42.8999 50.2004 40.2459 48.9446Z" fill="white"/>
<path fill-rule="evenodd" clip-rule="evenodd" d="M55.2343 43.7248C55.2343 41.2649 53.2217 39.2524 50.762 39.2524C48.3021 39.2524 46.2896 41.265 46.2896 43.7248V45.961C46.2896 47.1043 46.7243 48.1509 47.4367 48.9439C48.2571 49.857 49.4455 50.4334 50.762 50.4334C52.0785 50.4334 53.2669 49.8568 54.0872 48.9439C54.7996 48.151 55.2343 47.1043 55.2343 45.961V43.7248Z" fill="#E5AE8C"/>
<path fill-rule="evenodd" clip-rule="evenodd" d="M54.0872 48.9446C53.2668 49.8577 52.0784 50.4341 50.7619 50.4341C49.4454 50.4341 48.257 49.8575 47.4368 48.9443C44.7827 50.2003 42.9352 52.907 42.9352 56.0245V58.8378H58.5887V56.0245C58.5887 52.9071 56.7411 50.2004 54.0872 48.9446Z" fill="#CBE558"/>
<path d="M55.7587 48.5611C56.1652 47.7828 56.3964 46.8991 56.3964 45.9619V43.7255C56.3964 41.2932 54.8471 39.2162 52.6835 38.4288C52.2477 36.0297 50.8643 33.9314 48.8384 32.577C49.2445 31.799 49.4757 30.9155 49.4757 29.9787V27.7424C49.4757 24.6356 46.948 22.1079 43.8412 22.1079C40.7343 22.1079 38.2067 24.6356 38.2067 27.7424V29.9787C38.2067 30.9156 38.4378 31.7991 38.8441 32.5773C38.1133 33.0659 37.4665 33.6521 36.9169 34.314C36.364 33.6462 35.7179 33.0633 34.9961 32.5791C35.403 31.8005 35.6345 30.9165 35.6345 29.9787V27.7424C35.6345 24.6356 33.1068 22.1079 30 22.1079C26.8931 22.1079 24.3655 24.6356 24.3655 27.7424V29.9787C24.3655 30.9165 24.597 31.8006 25.004 32.5791C24.2781 33.0659 23.629 33.6532 23.0739 34.3258C22.5234 33.6592 21.8782 33.0684 21.1546 32.5798C21.5617 31.8011 21.7934 30.9167 21.7934 29.9787V27.7424C21.7934 24.6356 19.2658 22.1079 16.1588 22.1079C13.052 22.1079 10.5243 24.6356 10.5243 27.7424V29.9787C10.5243 30.9156 10.7555 31.7991 11.1618 32.5773C9.13742 33.931 7.75262 36.0299 7.31647 38.4289C5.15292 39.2162 3.60368 41.2932 3.60368 43.7255V45.9619C3.60368 46.899 3.83494 47.7828 4.24146 48.5611C1.75402 50.2227 0.249283 52.9893 0.249283 56.0248V58.8381C0.249283 59.48 0.769572 60.0003 1.41142 60.0003H15.2527H29.094H44.7475H58.5888C59.2305 60.0003 59.7509 59.48 59.7509 58.8381V56.0248C59.7508 52.9893 58.2462 50.2226 55.7587 48.5611ZM54.0723 43.7255V45.9619C54.0723 47.7871 52.5873 49.2721 50.762 49.2721C48.9368 49.2721 47.4518 47.7871 47.4518 45.9619V43.7255C47.4518 41.9002 48.9368 40.4153 50.762 40.4153C52.5873 40.4153 54.0723 41.9003 54.0723 43.7255ZM50.218 38.1178C47.3655 38.3924 45.1274 40.8022 45.1274 43.7255V45.9619C45.1274 46.8996 45.359 47.7839 45.766 48.5625C45.0456 49.0459 44.4005 49.6291 43.8476 50.2962C43.2987 49.6357 42.6503 49.0508 41.9174 48.5611C42.3239 47.7828 42.5551 46.899 42.5551 45.9619V43.7255C42.5551 40.8023 40.3172 38.3925 37.4647 38.1178C37.9358 36.5866 38.9608 35.2434 40.3337 34.3837C41.297 35.1522 42.5159 35.6132 43.8412 35.6132C45.1664 35.6132 46.3852 35.1522 47.3485 34.3837C48.7225 35.2438 49.747 36.5864 50.218 38.1178ZM33.6103 45.9619V43.7255C33.6103 41.9003 35.0953 40.4153 36.9205 40.4153C38.7458 40.4153 40.2308 41.9003 40.2308 43.7255V45.9619C40.2308 47.7871 38.7458 49.2721 36.9205 49.2721C35.0953 49.2721 33.6103 47.7871 33.6103 45.9619ZM40.5309 27.7424C40.5309 25.9171 42.0159 24.4322 43.8412 24.4322C45.6664 24.4322 47.1514 25.9172 47.1514 27.7424V29.9787C47.1514 31.804 45.6664 33.289 43.8412 33.289C42.0159 33.289 40.5309 31.804 40.5309 29.9787V27.7424ZM26.6896 27.7424C26.6896 25.9171 28.1746 24.4322 29.9999 24.4322C31.8251 24.4322 33.3101 25.9172 33.3101 27.7424V29.9787C33.3101 31.804 31.8251 33.289 29.9999 33.289C28.1745 33.289 26.6895 31.804 26.6895 29.9787V27.7424H26.6896ZM26.4927 34.3837C27.456 35.1522 28.6748 35.6132 30 35.6132C31.3252 35.6132 32.544 35.1522 33.5072 34.3838C34.3499 34.9083 35.0626 35.6096 35.6023 36.4467C35.3278 37.0757 35.1241 37.7398 34.9988 38.4289C32.8353 39.2162 31.286 41.2933 31.286 43.7255V45.9619C31.286 46.899 31.5173 47.7827 31.9238 48.561C31.1911 49.0504 30.5429 49.6349 29.9943 50.2948C29.4417 49.6279 28.7965 49.0458 28.0755 48.5623C28.4825 47.7836 28.714 46.8995 28.714 45.9617V43.7255C28.714 41.2926 27.1639 39.2153 24.9997 38.4283C24.8736 37.7475 24.6679 37.0865 24.3906 36.458C24.9311 35.6158 25.6465 34.9104 26.4927 34.3837ZM19.769 45.9619V43.7255C19.769 41.9002 21.254 40.4153 23.0793 40.4153C24.9047 40.4153 26.3897 41.9003 26.3897 43.7255V45.9619C26.3897 47.7871 24.9047 49.2721 23.0793 49.2721C21.254 49.2721 19.769 47.7871 19.769 45.9619ZM12.8484 27.7424C12.8484 25.9171 14.3333 24.4322 16.1586 24.4322C17.984 24.4322 19.4689 25.9172 19.4689 27.7424V29.9787C19.4689 31.804 17.984 33.289 16.1587 33.289C14.3333 33.289 12.8484 31.804 12.8484 29.9787V27.7424ZM12.6513 34.3837C13.6146 35.1522 14.8334 35.6132 16.1587 35.6132C17.4839 35.6132 18.7029 35.1522 19.666 34.3837C21.0403 35.2438 22.0645 36.5863 22.5354 38.1178C19.6828 38.3924 17.4447 40.8022 17.4447 43.7255V45.9619C17.4447 46.899 17.676 47.7828 18.0825 48.5611C17.35 49.0504 16.7021 49.6347 16.1535 50.2943C15.601 49.6275 14.9554 49.0458 14.2342 48.5623C14.6411 47.7836 14.8726 46.8996 14.8726 45.9619V43.7255C14.8726 40.8023 12.6346 38.3925 9.78218 38.1178C10.2534 36.5866 11.2783 35.2434 12.6513 34.3837ZM5.92783 43.7255C5.92783 41.9002 7.41281 40.4153 9.23818 40.4153C11.0634 40.4153 12.5484 41.9003 12.5484 43.7255V45.9619C12.5484 47.7871 11.0634 49.2721 9.23818 49.2721C7.41281 49.2721 5.92783 47.7871 5.92783 45.9619V43.7255ZM2.57344 56.0248C2.57344 53.6981 3.76858 51.5832 5.73015 50.3665C6.69345 51.1352 7.91265 51.5965 9.23806 51.5965C10.5633 51.5965 11.7821 51.1355 12.7454 50.3669C13.5874 50.8909 14.2993 51.5908 14.8385 52.4268C14.3529 53.5391 14.0905 54.7584 14.0905 56.0248V57.676H2.57344V56.0248ZM16.4147 56.0248C16.4147 53.6981 17.6098 51.5832 19.5713 50.3665C20.5346 51.1352 21.7538 51.5965 23.0792 51.5965C24.4044 51.5965 25.6233 51.1355 26.5866 50.3671C27.4281 50.8908 28.1401 51.5911 28.6796 52.4273C28.194 53.5395 27.9316 54.7587 27.9316 56.0249V57.6761H16.4146V56.0248H16.4147ZM30.256 56.0248C30.256 53.6981 31.451 51.5832 33.4126 50.3665C34.3759 51.1352 35.5951 51.5965 36.9205 51.5965C38.2459 51.5965 39.4651 51.1353 40.4284 50.3665C42.3899 51.5833 43.5853 53.6989 43.5853 56.0248V57.676H30.256V56.0248ZM57.4265 57.6759H45.9095V56.0247C45.9095 54.7589 45.6471 53.5397 45.1615 52.4274C45.7012 51.5914 46.414 50.8904 47.2546 50.3668C48.2178 51.1353 49.4366 51.5962 50.7618 51.5962C52.0872 51.5962 53.3064 51.1351 54.2697 50.3662C56.2314 51.583 57.4264 53.6979 57.4264 56.0246V57.6759H57.4265Z" fill="black"/>
<path d="M20.615 9.87856C21.2187 9.66054 21.5314 8.9944 21.3134 8.39079C20.5826 6.36727 20.8465 4.76631 22.1204 3.49656C23.6917 1.93012 26.2486 1.93012 27.8201 3.49656C29.0424 4.71495 30.9575 4.71506 32.1798 3.49656C33.7514 1.93012 36.3082 1.93012 37.8796 3.49656C39.0204 4.63371 39.3492 6.03095 38.8844 7.768C37.72 12.1208 32.3188 16.5657 30.0009 17.4423C29.3377 17.1894 28.4125 16.6367 27.447 15.9109C26.9339 15.525 26.2053 15.6283 25.8198 16.1414C25.4341 16.6545 25.5373 17.3831 26.0504 17.7687C27.4375 18.8114 28.7336 19.5279 29.7002 19.786C29.7984 19.8123 29.8992 19.8254 30.0001 19.8254C30.101 19.8254 30.2017 19.8123 30.3001 19.786C31.8469 19.3729 34.2017 17.7897 36.2995 15.7526C37.7401 14.3537 40.2831 11.5344 41.1299 8.36859C41.8089 5.83048 41.2525 3.57652 39.5206 1.8504C37.0444 -0.618101 33.0152 -0.618101 30.5391 1.8504C30.1852 2.20299 29.7289 2.11734 29.4611 1.8504C26.9847 -0.617984 22.9557 -0.617752 20.4795 1.8504C18.5557 3.76804 18.0881 6.30266 19.1273 9.18011C19.3453 9.78384 20.0113 10.0962 20.615 9.87856Z" fill="black"/>
<path d="M22.9475 12.0869C22.3056 12.0869 21.7858 12.6072 21.7858 13.2491C21.7858 13.8909 22.3064 14.4112 22.9483 14.4112C23.5901 14.4112 24.1104 13.8909 24.1104 13.2491C24.1104 12.6072 23.5901 12.0869 22.9483 12.0869H22.9475Z" fill="black"/>
</svg>
