<svg width="60" height="60" viewBox="0 0 60 60" fill="none" xmlns="http://www.w3.org/2000/svg">
<path d="M29.9983 56.4854C44.6252 56.4854 56.4826 44.6279 56.4826 30.001C56.4826 15.3741 44.6252 3.5166 29.9983 3.5166C15.3713 3.5166 3.51387 15.3741 3.51387 30.001C3.51387 44.6279 15.3713 56.4854 29.9983 56.4854Z" fill="#B7BCCE"/>
<path d="M29.9983 39.8447C35.4348 39.8447 39.842 35.4375 39.842 30.001C39.842 24.5644 35.4348 20.1572 29.9983 20.1572C24.5617 20.1572 20.1545 24.5644 20.1545 30.001C20.1545 35.4375 24.5617 39.8447 29.9983 39.8447Z" fill="#CBF4FB"/>
<path d="M29.9983 34.2197C32.3282 34.2197 34.217 32.3309 34.217 30.001C34.217 27.671 32.3282 25.7822 29.9983 25.7822C27.6683 25.7822 25.7795 27.671 25.7795 30.001C25.7795 32.3309 27.6683 34.2197 29.9983 34.2197Z" fill="#F0C980"/>
<path d="M10.9586 58.8279L2.84966 50.719C0.610438 48.4798 0.610438 44.8493 2.84966 42.6101C5.08887 40.3709 8.71934 40.3709 10.9586 42.6101C13.1978 40.3709 16.8282 40.3709 19.0675 42.6101C21.3067 44.8493 21.3067 48.4798 19.0675 50.719L10.9586 58.8279Z" fill="#FF9B9B"/>
<path d="M48.9587 19.2017C51.0298 19.2017 52.7087 17.5227 52.7087 15.4517C52.7087 13.3806 51.0298 11.7017 48.9587 11.7017C46.8876 11.7017 45.2087 13.3806 45.2087 15.4517C45.2087 17.5227 46.8876 19.2017 48.9587 19.2017Z" fill="#FF9B9B"/>
<path d="M29.9983 24.6104C27.0259 24.6104 24.6076 27.0286 24.6076 30.001C24.6076 32.9733 27.0259 35.3916 29.9983 35.3916C32.9706 35.3916 35.3889 32.9733 35.3889 30.001C35.3889 27.0286 32.9707 24.6104 29.9983 24.6104ZM29.9983 33.0479C28.3183 33.0479 26.9514 31.6811 26.9514 30.001C26.9514 28.3209 28.3183 26.9541 29.9983 26.9541C31.6783 26.9541 33.0451 28.3209 33.0451 30.001C33.0451 31.6811 31.6784 33.0479 29.9983 33.0479Z" fill="black"/>
<path d="M29.9983 18.9854C23.9242 18.9854 18.9826 23.9269 18.9826 30.001C18.9826 36.075 23.9242 41.0166 29.9983 41.0166C36.0723 41.0166 41.0139 36.075 41.0139 30.001C41.0139 23.9269 36.0723 18.9854 29.9983 18.9854ZM29.9983 38.6728C25.2165 38.6728 21.3264 34.7827 21.3264 30.001C21.3264 25.2193 25.2165 21.3291 29.9983 21.3291C34.78 21.3291 38.6701 25.2193 38.6701 30.001C38.6701 34.7827 34.78 38.6728 29.9983 38.6728Z" fill="black"/>
<path d="M59.952 0.847955C59.7728 0.226042 59.1235 -0.1322 58.5015 0.0463935L52.5313 1.76694C51.9681 1.85237 51.5365 2.33858 51.5365 2.92557V11.2613C50.9836 10.92 50.3587 10.6847 49.6901 10.5846C47.2016 8.05931 44.3005 6.06115 41.0584 4.64506C37.5634 3.11846 33.8421 2.34432 29.998 2.34432C22.6108 2.34432 15.6657 5.22104 10.4422 10.4447C5.21867 15.6682 2.34184 22.6133 2.34184 30.0005C2.34184 33.5593 3.00465 37.0056 4.31093 40.2656C3.47703 40.6021 2.69574 41.1072 2.02074 41.7821C-0.67175 44.4747 -0.67175 48.8558 2.02074 51.5484L10.1296 59.6573C10.3585 59.886 10.6584 60.0005 10.9583 60.0005C11.2581 60.0005 11.5581 59.886 11.7869 59.6573L17.0173 54.4268C20.9943 56.5424 25.4626 57.6568 29.998 57.6568C35.4684 57.6568 40.7578 56.0621 45.2946 53.045C45.8335 52.6865 45.9799 51.9591 45.6214 51.4202C45.2631 50.8812 44.5356 50.735 43.9967 51.0933C39.8459 53.854 35.0051 55.3131 29.998 55.3131C26.0881 55.3131 22.2336 54.4082 18.7584 52.686L19.8959 51.5485C22.5884 48.8559 22.5884 44.4748 19.8959 41.7822C17.4646 39.3512 13.6569 39.115 10.9584 41.0744C9.67999 40.146 8.15245 39.7115 6.64038 39.7687C5.34382 36.6765 4.6857 33.3949 4.6857 30.0007C4.6857 16.0433 16.0408 4.68818 29.9981 4.68818C36.2656 4.68818 42.1457 6.93115 46.773 11.0436C45.153 11.8501 44.0367 13.5227 44.0367 15.4518C44.0367 18.1658 46.2446 20.3737 48.9586 20.3737C50.4292 20.3737 51.7502 19.7246 52.6529 18.6989C54.3967 22.1915 55.3106 26.0584 55.3106 30.0007C55.3106 35.008 53.8514 39.8485 51.0908 43.9993C50.7323 44.5382 50.8787 45.2657 51.4176 45.624C51.6172 45.7567 51.8426 45.8202 52.0656 45.8202C52.4447 45.8202 52.8167 45.6366 53.0424 45.2972C56.0597 40.7607 57.6543 35.4711 57.6543 30.0007C57.6543 25.0602 56.34 20.2272 53.8499 15.9944C53.8695 15.8162 53.8804 15.6354 53.8804 15.452V3.8176L59.1507 2.29873C59.7724 2.1192 60.1312 1.46987 59.952 0.847955ZM11.7868 43.4395C13.5656 41.6608 16.4597 41.6609 18.2384 43.4395C20.0171 45.2181 20.0171 48.1123 18.2384 49.8911L10.9581 57.1714L3.67789 49.8911C1.89922 48.1123 1.89922 45.2181 3.67789 43.4395C4.56722 42.5501 5.73558 42.1054 6.9037 42.1054C8.07183 42.1054 9.24018 42.5501 10.1295 43.4395C10.5872 43.897 11.3292 43.897 11.7868 43.4395ZM48.9583 18.03C47.5367 18.03 46.3802 16.8734 46.3802 15.4518C46.3802 14.0302 47.5367 12.8737 48.9583 12.8737C50.3799 12.8737 51.5365 14.0302 51.5365 15.4518C51.5365 16.8734 50.3799 18.03 48.9583 18.03Z" fill="black"/>
<path d="M29.9983 52.1104C42.1894 52.1104 52.1077 42.1921 52.1077 30.001C52.1077 29.3539 51.583 28.8291 50.9358 28.8291C50.2886 28.8291 49.7639 29.3539 49.7639 30.001C49.7639 40.8998 40.8971 49.7666 29.9983 49.7666C29.351 49.7666 28.8264 50.2914 28.8264 50.9385C28.8264 51.5856 29.351 52.1104 29.9983 52.1104Z" fill="black"/>
<path d="M28.8264 45.3916C28.8264 46.0387 29.351 46.5634 29.9983 46.5634C39.1309 46.5634 46.5607 39.1336 46.5607 30.001C46.5607 29.3539 46.0361 28.8291 45.3888 28.8291C44.7416 28.8291 44.217 29.3539 44.217 30.001C44.217 37.8412 37.8385 44.2197 29.9983 44.2197C29.351 44.2197 28.8264 44.7444 28.8264 45.3916Z" fill="black"/>
<path d="M48.726 47.5562C48.4178 47.5562 48.1154 47.6805 47.8963 47.8983C47.6783 48.1175 47.5541 48.4187 47.5541 48.728C47.5541 49.0362 47.6783 49.3386 47.8963 49.5565C48.1154 49.7745 48.4166 49.8999 48.726 49.8999C49.0342 49.8999 49.3365 49.7746 49.5545 49.5565C49.7725 49.3385 49.8979 49.0362 49.8979 48.728C49.8979 48.4187 49.7725 48.1175 49.5545 47.8983C49.3365 47.6804 49.0342 47.5562 48.726 47.5562Z" fill="black"/>
</svg>
